<svg xmlns="http://www.w3.org/2000/svg" width="800" height="600" viewBox="0 0 800 600">
  <defs>
    <linearGradient id="bg" x1="0%" y1="0%" x2="100%" y2="100%">
      <stop offset="0%" stop-color="#1a1a2e"/>
      <stop offset="100%" stop-color="#16213e"/>
    </linearGradient>
    <linearGradient id="orange" x1="0%" y1="0%" x2="0%" y2="100%">
      <stop offset="0%" stop-color="#ff6b35"/>
      <stop offset="100%" stop-color="#f7931e"/>
    </linearGradient>
  </defs>
  <rect width="800" height="600" fill="url(#bg)"/>
  <circle cx="600" cy="150" r="200" fill="#ff6b35" opacity="0.08"/>
  <circle cx="150" cy="450" r="150" fill="#f7931e" opacity="0.06"/>
  <!-- Podcast waveform -->
  <g transform="translate(160,260)" opacity="0.7">
    <rect x="0" y="30" width="8" height="40" rx="4" fill="url(#orange)"/>
    <rect x="20" y="10" width="8" height="80" rx="4" fill="url(#orange)"/>
    <rect x="40" y="-10" width="8" height="120" rx="4" fill="url(#orange)"/>
    <rect x="60" y="5" width="8" height="90" rx="4" fill="url(#orange)"/>
    <rect x="80" y="20" width="8" height="60" rx="4" fill="url(#orange)"/>
    <rect x="100" y="-5" width="8" height="110" rx="4" fill="url(#orange)"/>
    <rect x="120" y="15" width="8" height="70" rx="4" fill="url(#orange)"/>
    <rect x="140" y="25" width="8" height="50" rx="4" fill="url(#orange)"/>
    <rect x="160" y="0" width="8" height="100" rx="4" fill="url(#orange)"/>
    <rect x="180" y="10" width="8" height="80" rx="4" fill="url(#orange)"/>
    <rect x="200" y="35" width="8" height="30" rx="4" fill="url(#orange)"/>
    <rect x="220" y="5" width="8" height="90" rx="4" fill="url(#orange)"/>
    <rect x="240" y="20" width="8" height="60" rx="4" fill="url(#orange)"/>
    <rect x="260" y="-5" width="8" height="110" rx="4" fill="url(#orange)"/>
    <rect x="280" y="15" width="8" height="70" rx="4" fill="url(#orange)"/>
    <rect x="300" y="30" width="8" height="40" rx="4" fill="url(#orange)"/>
    <rect x="320" y="10" width="8" height="80" rx="4" fill="url(#orange)"/>
    <rect x="340" y="-10" width="8" height="120" rx="4" fill="url(#orange)"/>
    <rect x="360" y="5" width="8" height="90" rx="4" fill="url(#orange)"/>
    <rect x="380" y="25" width="8" height="50" rx="4" fill="url(#orange)"/>
    <rect x="400" y="0" width="8" height="100" rx="4" fill="url(#orange)"/>
    <rect x="420" y="20" width="8" height="60" rx="4" fill="url(#orange)"/>
    <rect x="440" y="35" width="8" height="30" rx="4" fill="url(#orange)"/>
    <rect x="460" y="10" width="8" height="80" rx="4" fill="url(#orange)"/>
    <rect x="480" y="15" width="8" height="70" rx="4" fill="url(#orange)"/>
  </g>
  <text x="400" y="520" text-anchor="middle" font-family="sans-serif" font-weight="bold" font-size="22" fill="url(#orange)" opacity="0.5" letter-spacing="6">KUKU FM</text>
</svg>