<svg xmlns="http://www.w3.org/2000/svg" xml:space="preserve" width="133.333" height="133.333"><defs><clipPath id="a" clipPathUnits="userSpaceOnUse"><path d="M960 0H40C17.91 0 0 17.91 0 40v920c0 22.09 17.91 40 40 40h920c22.09 0 40-17.91 40-40V40c0-22.09-17.91-40-40-40"/></clipPath><clipPath id="b" clipPathUnits="userSpaceOnUse"><path d="M960 0H40C17.91 0 0 17.91 0 40v920c0 22.09 17.91 40 40 40h920c22.09 0 40-17.91 40-40V40c0-22.09-17.91-40-40-40"/></clipPath><clipPath id="c" clipPathUnits="userSpaceOnUse"><path d="M960 0H40C17.91 0 0 17.91 0 40v920c0 22.09 17.91 40 40 40h920c22.09 0 40-17.91 40-40V40c0-22.09-17.91-40-40-40"/></clipPath><clipPath id="d" clipPathUnits="userSpaceOnUse"><path d="M960 0H40C17.91 0 0 17.91 0 40v920c0 22.09 17.91 40 40 40h920c22.09 0 40-17.91 40-40V40c0-22.09-17.91-40-40-40"/></clipPath></defs><g clip-path="url(#a)" transform="matrix(.13333 0 0 -.13333 0 133.333)"><path d="M1012.83-52.828H-12.836c-22.09 0-40 17.91-40 40V1012.84c0 22.09 17.91 40 40 40H1012.83c22.09 0 40-17.91 40-40V-12.828c0-22.09-17.91-40-40-40" style="fill:#2a3944;fill-opacity:1;fill-rule:nonzero;stroke:none"/></g><g clip-path="url(#d)" transform="matrix(.13333 0 0 -.13333 0 133.333)"><path d="M500-113.699-113.695 500l83.457 533.18 1066.608 7.09V-36.262L500-113.699" style="fill:#2a3944;fill-opacity:1;fill-rule:nonzero;stroke:none"/><path d="M773.223 501.105 430.668 158.547 259.414 329.805l342.551 342.55 171.258-171.25" style="fill:#64c9a9;fill-opacity:1;fill-rule:nonzero;stroke:none"/><path d="m257.754 687.41 128.164-128.16c18.305-18.305 18.305-47.988 0-66.289L580.371 687.41 419.063 848.723 257.754 687.41" style="fill:#fff;fill-opacity:1;fill-rule:nonzero;stroke:none"/></g></svg>